<svg width="484" height="149" viewBox="0 0 484 149" fill="none" xmlns="http://www.w3.org/2000/svg">
<path d="M37.8086 148.316C24.5897 148.316 15.0457 145.025 9.17676 138.443C3.36263 131.861 0.455566 121.385 0.455566 107.014V92.8628H29.0874V110.963C29.0874 114.309 29.5811 116.942 30.5684 118.862C31.6105 120.727 33.3931 121.659 35.9163 121.659C38.5491 121.659 40.3591 120.891 41.3464 119.355C42.3886 117.82 42.9097 115.297 42.9097 111.786C42.9097 107.343 42.4709 103.641 41.5933 100.679C40.7157 97.6622 39.1799 94.81 36.9858 92.1223C34.8467 89.3798 31.8573 86.1985 28.0178 82.5784L15.0183 70.2371C5.30981 61.0771 0.455566 50.6007 0.455566 38.8079C0.455566 26.4666 3.30778 17.0597 9.01221 10.5874C14.7715 4.11507 23.0813 0.878906 33.9417 0.878906C47.2154 0.878906 56.6222 4.41675 62.1621 11.4924C67.7568 18.5681 70.5542 29.3188 70.5542 43.7444H41.0996V33.7891C41.0996 31.8145 40.5237 30.2786 39.3718 29.1816C38.2748 28.0846 36.7664 27.5361 34.8467 27.5361C32.543 27.5361 30.8426 28.1943 29.7456 29.5107C28.7035 30.7723 28.1824 32.4178 28.1824 34.4473C28.1824 36.4767 28.7309 38.6707 29.8279 41.0293C30.9249 43.3879 33.0915 46.1029 36.3276 49.1746L53.0295 65.2183C56.3754 68.3996 59.447 71.7729 62.2444 75.3381C65.0417 78.8486 67.2906 82.9623 68.991 87.6794C70.6913 92.3417 71.5415 98.0461 71.5415 104.793C71.5415 118.396 69.0184 129.064 63.9722 136.798C58.9808 144.477 50.2596 148.316 37.8086 148.316ZM93.6736 147V30.0044H76.478V2.19531H139.83V30.0044H122.635V147H93.6736ZM147.893 147V2.19531H205.815V30.1689H177.348V58.3894H204.663V85.6226H177.348V118.78H207.707V147H147.893ZM217.333 147V2.19531H255.592C263.6 2.19531 269.935 3.97795 274.597 7.54321C279.314 11.1085 282.688 16.1821 284.717 22.7642C286.747 29.3462 287.761 37.1898 287.761 46.2949C287.761 55.071 286.911 62.7226 285.211 69.2498C283.51 75.7221 280.466 80.7409 276.078 84.3062C271.745 87.8714 265.574 89.6541 257.566 89.6541H245.801V147H217.333ZM245.801 63.655H247.446C252.822 63.655 256.113 62.1466 257.319 59.1299C258.526 56.1131 259.129 51.6702 259.129 45.8013C259.129 40.3162 258.526 36.0928 257.319 33.1309C256.167 30.1141 253.398 28.6057 249.01 28.6057H245.801V63.655ZM368.556 148.316C362.028 148.316 356.077 147.055 350.702 144.532C345.327 142.009 341.048 138.279 337.867 133.342C334.74 128.351 333.177 122.235 333.177 114.995V78.7114H361.809V113.267C361.809 115.79 362.303 117.82 363.29 119.355C364.332 120.891 365.978 121.659 368.227 121.659C372.56 121.659 374.726 118.999 374.726 113.678V2.19531H403.934V110.799C403.934 118.478 402.426 125.142 399.409 130.792C396.392 136.386 392.224 140.72 386.903 143.791C381.583 146.808 375.467 148.316 368.556 148.316ZM449.515 148.316C436.296 148.316 426.752 145.025 420.883 138.443C415.069 131.861 412.162 121.385 412.162 107.014V92.8628H440.793V110.963C440.793 114.309 441.287 116.942 442.274 118.862C443.317 120.727 445.099 121.659 447.622 121.659C450.255 121.659 452.065 120.891 453.052 119.355C454.095 117.82 454.616 115.297 454.616 111.786C454.616 107.343 454.177 103.641 453.299 100.679C452.422 97.6622 450.886 94.81 448.692 92.1223C446.553 89.3798 443.563 86.1985 439.724 82.5784L426.724 70.2371C417.016 61.0771 412.162 50.6007 412.162 38.8079C412.162 26.4666 415.014 17.0597 420.718 10.5874C426.478 4.11507 434.787 0.878906 445.648 0.878906C458.921 0.878906 468.328 4.41675 473.868 11.4924C479.463 18.5681 482.26 29.3188 482.26 43.7444H452.806V33.7891C452.806 31.8145 452.23 30.2786 451.078 29.1816C449.981 28.0846 448.472 27.5361 446.553 27.5361C444.249 27.5361 442.549 28.1943 441.452 29.5107C440.41 30.7723 439.888 32.4178 439.888 34.4473C439.888 36.4767 440.437 38.6707 441.534 41.0293C442.631 43.3879 444.798 46.1029 448.034 49.1746L464.736 65.2183C468.081 68.3996 471.153 71.7729 473.95 75.3381C476.748 78.8486 478.997 82.9623 480.697 87.6794C482.397 92.3417 483.248 98.0461 483.248 104.793C483.248 118.396 480.724 129.064 475.678 136.798C470.687 144.477 461.966 148.316 449.515 148.316Z" fill="#FCAE1E"/>
<path d="M48.084 135.408C48.2402 135.408 48.3607 135.438 48.4453 135.496C48.5299 135.548 48.5918 135.646 48.6309 135.789C48.6764 135.932 48.6992 136.141 48.6992 136.414C48.6992 136.688 48.6764 136.896 48.6309 137.039C48.5918 137.182 48.5299 137.28 48.4453 137.332C48.3607 137.384 48.2402 137.41 48.084 137.41H47.5566L47.6934 144.998H48.2793C48.4355 144.998 48.556 145.027 48.6406 145.086C48.7253 145.138 48.7871 145.236 48.8262 145.379C48.8717 145.522 48.8945 145.73 48.8945 146.004C48.8945 146.277 48.8717 146.486 48.8262 146.629C48.7871 146.772 48.7253 146.87 48.6406 146.922C48.556 146.974 48.4355 147 48.2793 147H44.627C44.4707 147 44.3503 146.974 44.2656 146.922C44.181 146.87 44.1159 146.772 44.0703 146.629C44.0312 146.486 44.0117 146.277 44.0117 146.004C44.0117 145.73 44.0312 145.522 44.0703 145.379C44.1159 145.236 44.181 145.138 44.2656 145.086C44.3503 145.027 44.4707 144.998 44.627 144.998H45.5254L45.4668 139.217L43.9922 143.201C43.9076 143.429 43.7904 143.592 43.6406 143.689C43.4909 143.781 43.2793 143.826 43.0059 143.826C42.7259 143.826 42.5111 143.781 42.3613 143.689C42.2116 143.592 42.0911 143.429 42 143.201L40.5156 139.246L40.457 144.998H41.3652C41.5215 144.998 41.6419 145.027 41.7266 145.086C41.8112 145.138 41.873 145.236 41.9121 145.379C41.9577 145.522 41.9805 145.73 41.9805 146.004C41.9805 146.277 41.9577 146.486 41.9121 146.629C41.873 146.772 41.8112 146.87 41.7266 146.922C41.6419 146.974 41.5215 147 41.3652 147H37.7129C37.5566 147 37.4362 146.974 37.3516 146.922C37.2669 146.87 37.2018 146.772 37.1562 146.629C37.1172 146.486 37.0977 146.277 37.0977 146.004C37.0977 145.73 37.1172 145.522 37.1562 145.379C37.2018 145.236 37.2669 145.138 37.3516 145.086C37.4362 145.027 37.5566 144.998 37.7129 144.998H38.2891L38.4355 137.41H37.9082C37.752 137.41 37.6315 137.384 37.5469 137.332C37.4622 137.28 37.3971 137.182 37.3516 137.039C37.3125 136.896 37.293 136.688 37.293 136.414C37.293 136.141 37.3125 135.932 37.3516 135.789C37.3971 135.646 37.4622 135.548 37.5469 135.496C37.6315 135.438 37.752 135.408 37.9082 135.408H40.6816C40.8184 135.408 40.929 135.431 41.0137 135.477C41.1048 135.522 41.1699 135.6 41.209 135.711L42.9961 140.506L44.7734 135.711C44.8125 135.6 44.8743 135.522 44.959 135.477C45.0501 135.431 45.1641 135.408 45.3008 135.408H48.084ZM55.7988 135.408C56.0592 135.408 56.2708 135.46 56.4336 135.564C56.5964 135.662 56.7135 135.822 56.7852 136.043L59.6172 144.998H60.4668C60.623 144.998 60.7435 145.024 60.8281 145.076C60.9128 145.128 60.9746 145.226 61.0137 145.369C61.0592 145.512 61.082 145.721 61.082 145.994C61.082 146.268 61.0592 146.476 61.0137 146.619C60.9746 146.762 60.9128 146.863 60.8281 146.922C60.7435 146.974 60.623 147 60.4668 147H56.3262C56.1699 147 56.0495 146.974 55.9648 146.922C55.8802 146.863 55.8151 146.762 55.7695 146.619C55.7305 146.476 55.7109 146.268 55.7109 145.994C55.7109 145.721 55.7305 145.512 55.7695 145.369C55.8151 145.226 55.8802 145.128 55.9648 145.076C56.0495 145.024 56.1699 144.998 56.3262 144.998H57.166L56.7266 143.582H53.1719L52.7324 144.998H53.4551C53.6113 144.998 53.7318 145.024 53.8164 145.076C53.901 145.128 53.9629 145.226 54.002 145.369C54.0475 145.512 54.0703 145.721 54.0703 145.994C54.0703 146.268 54.0475 146.476 54.002 146.619C53.9629 146.762 53.901 146.863 53.8164 146.922C53.7318 146.974 53.6113 147 53.4551 147H49.5098C49.3535 147 49.2331 146.974 49.1484 146.922C49.0638 146.863 49.002 146.762 48.9629 146.619C48.9173 146.476 48.8945 146.268 48.8945 145.994C48.8945 145.721 48.9173 145.512 48.9629 145.369C49.002 145.226 49.0638 145.128 49.1484 145.076C49.2331 145.024 49.3535 144.998 49.5098 144.998H50.3301L52.8008 137.41H51.1699C51.0137 137.41 50.8932 137.384 50.8086 137.332C50.724 137.273 50.6589 137.173 50.6133 137.029C50.5742 136.886 50.5547 136.678 50.5547 136.404C50.5547 136.131 50.5742 135.923 50.6133 135.779C50.6589 135.636 50.724 135.538 50.8086 135.486C50.8932 135.434 51.0137 135.408 51.1699 135.408H55.7988ZM54.9395 137.41L53.7383 141.58H56.1699L54.998 137.41H54.9395ZM72.0195 135.408C72.1758 135.408 72.2962 135.438 72.3809 135.496C72.4655 135.548 72.5273 135.646 72.5664 135.789C72.612 135.932 72.6348 136.141 72.6348 136.414C72.6348 136.688 72.612 136.896 72.5664 137.039C72.5273 137.182 72.4655 137.28 72.3809 137.332C72.2962 137.384 72.1758 137.41 72.0195 137.41H71.5996L68.1816 140.74C68.5462 140.76 68.8783 140.861 69.1777 141.043C69.4772 141.219 69.7376 141.463 69.959 141.775C70.1087 141.99 70.2454 142.215 70.3691 142.449C70.4928 142.677 70.6328 142.957 70.7891 143.289C71.0234 143.771 71.1862 144.09 71.2773 144.246C71.4206 144.487 71.5703 144.673 71.7266 144.803C71.8828 144.933 72.0618 144.998 72.2637 144.998H72.3613C72.5176 144.998 72.638 145.027 72.7227 145.086C72.8073 145.138 72.8691 145.236 72.9082 145.379C72.9538 145.522 72.9766 145.73 72.9766 146.004C72.9766 146.277 72.9538 146.486 72.9082 146.629C72.8691 146.772 72.8073 146.87 72.7227 146.922C72.638 146.974 72.5176 147 72.3613 147H71.0039C70.6068 147 70.2682 146.88 69.9883 146.639C69.7148 146.391 69.4609 146.049 69.2266 145.613C69.0768 145.333 68.9206 145.008 68.7578 144.637C68.6406 144.389 68.5202 144.142 68.3965 143.895C68.2728 143.647 68.1589 143.442 68.0547 143.279C67.8854 143.025 67.6966 142.827 67.4883 142.684C67.2799 142.534 67.0651 142.459 66.8438 142.459C66.5573 142.459 66.3001 142.57 66.0723 142.791L65.5742 143.279V144.998H66.6973C66.8535 144.998 66.974 145.027 67.0586 145.086C67.1432 145.138 67.2051 145.236 67.2441 145.379C67.2897 145.522 67.3125 145.73 67.3125 146.004C67.3125 146.277 67.2897 146.486 67.2441 146.629C67.2051 146.772 67.1432 146.87 67.0586 146.922C66.974 146.974 66.8535 147 66.6973 147H62.0879C61.9316 147 61.8112 146.974 61.7266 146.922C61.6419 146.87 61.5768 146.772 61.5312 146.629C61.4922 146.486 61.4727 146.277 61.4727 146.004C61.4727 145.73 61.4922 145.522 61.5312 145.379C61.5768 145.236 61.6419 145.138 61.7266 145.086C61.8112 145.027 61.9316 144.998 62.0879 144.998H63.1328V137.41H62.0879C61.9316 137.41 61.8112 137.384 61.7266 137.332C61.6419 137.28 61.5768 137.182 61.5312 137.039C61.4922 136.896 61.4727 136.688 61.4727 136.414C61.4727 136.141 61.4922 135.932 61.5312 135.789C61.5768 135.646 61.6419 135.548 61.7266 135.496C61.8112 135.438 61.9316 135.408 62.0879 135.408H66.0332C66.1895 135.408 66.3099 135.438 66.3945 135.496C66.4792 135.548 66.541 135.646 66.5801 135.789C66.6257 135.932 66.6484 136.141 66.6484 136.414C66.6484 136.688 66.6257 136.896 66.5801 137.039C66.541 137.182 66.4792 137.28 66.3945 137.332C66.3099 137.384 66.1895 137.41 66.0332 137.41H65.5742V140.535L68.7383 137.41H68.2207C68.0645 137.41 67.944 137.384 67.8594 137.332C67.7747 137.28 67.7096 137.182 67.6641 137.039C67.625 136.896 67.6055 136.688 67.6055 136.414C67.6055 136.141 67.625 135.932 67.6641 135.789C67.7096 135.646 67.7747 135.548 67.8594 135.496C67.944 135.438 68.0645 135.408 68.2207 135.408H72.0195ZM83.084 135.408C83.3118 135.408 83.4746 135.457 83.5723 135.555C83.6699 135.652 83.7188 135.815 83.7188 136.043V138.992C83.7188 139.214 83.6243 139.373 83.4355 139.471C83.2467 139.562 82.944 139.607 82.5273 139.607C82.1237 139.607 81.847 139.562 81.6973 139.471C81.5475 139.38 81.4727 139.22 81.4727 138.992V137.508H77.5664V139.979H79.9492C80.1771 139.979 80.3366 140.053 80.4277 140.203C80.5189 140.353 80.5645 140.63 80.5645 141.033C80.5645 141.437 80.5189 141.714 80.4277 141.863C80.3366 142.007 80.1771 142.078 79.9492 142.078H77.5664V144.9H81.5703V142.928C81.5703 142.706 81.6647 142.55 81.8535 142.459C82.0488 142.361 82.3646 142.312 82.8008 142.312C83.2305 142.312 83.5234 142.358 83.6797 142.449C83.8359 142.54 83.9141 142.7 83.9141 142.928V146.365C83.9141 146.587 83.8652 146.749 83.7676 146.854C83.6699 146.951 83.5072 147 83.2793 147H74.1777C74.0215 147 73.901 146.974 73.8164 146.922C73.7318 146.87 73.6667 146.772 73.6211 146.629C73.582 146.486 73.5625 146.277 73.5625 146.004C73.5625 145.73 73.582 145.522 73.6211 145.379C73.6667 145.236 73.7318 145.138 73.8164 145.086C73.901 145.027 74.0215 144.998 74.1777 144.998H75.125V137.41H74.1777C74.0215 137.41 73.901 137.384 73.8164 137.332C73.7318 137.28 73.6667 137.182 73.6211 137.039C73.582 136.896 73.5625 136.688 73.5625 136.414C73.5625 136.141 73.582 135.932 73.6211 135.789C73.6667 135.646 73.7318 135.548 73.8164 135.496C73.901 135.438 74.0215 135.408 74.1777 135.408H83.084ZM108.533 135.408C108.689 135.408 108.81 135.438 108.895 135.496C108.979 135.548 109.041 135.646 109.08 135.789C109.126 135.932 109.148 136.141 109.148 136.414C109.148 136.688 109.126 136.896 109.08 137.039C109.041 137.182 108.979 137.28 108.895 137.332C108.81 137.384 108.689 137.41 108.533 137.41H107.986L107 146.58C106.98 146.743 106.935 146.87 106.863 146.961C106.792 147.052 106.674 147.117 106.512 147.156C106.349 147.195 106.118 147.215 105.818 147.215C105.389 147.215 105.076 147.166 104.881 147.068C104.692 146.971 104.559 146.808 104.48 146.58L102.918 141.98L101.336 146.58C101.258 146.808 101.121 146.971 100.926 147.068C100.73 147.166 100.415 147.215 99.9785 147.215C99.679 147.215 99.4479 147.195 99.2852 147.156C99.1289 147.117 99.015 147.052 98.9434 146.961C98.8783 146.87 98.8359 146.743 98.8164 146.58L97.8691 137.41H97.3809C97.2246 137.41 97.1042 137.384 97.0195 137.332C96.9349 137.28 96.873 137.182 96.834 137.039C96.7884 136.896 96.7656 136.688 96.7656 136.414C96.7656 136.141 96.7884 135.932 96.834 135.789C96.873 135.646 96.9349 135.548 97.0195 135.496C97.1042 135.438 97.2246 135.408 97.3809 135.408H101.229C101.385 135.408 101.505 135.438 101.59 135.496C101.674 135.548 101.736 135.646 101.775 135.789C101.821 135.932 101.844 136.141 101.844 136.414C101.844 136.688 101.821 136.896 101.775 137.039C101.736 137.182 101.674 137.28 101.59 137.332C101.505 137.384 101.385 137.41 101.229 137.41H100.086L100.604 143.113L102.029 138.934C102.075 138.784 102.163 138.67 102.293 138.592C102.423 138.514 102.641 138.475 102.947 138.475C103.273 138.475 103.507 138.507 103.65 138.572C103.794 138.631 103.885 138.729 103.924 138.865L105.359 143.113L105.887 137.41H104.881C104.725 137.41 104.604 137.384 104.52 137.332C104.435 137.28 104.37 137.182 104.324 137.039C104.285 136.896 104.266 136.688 104.266 136.414C104.266 136.141 104.285 135.932 104.324 135.789C104.37 135.646 104.435 135.548 104.52 135.496C104.604 135.438 104.725 135.408 104.881 135.408H108.533ZM119.061 135.408C119.288 135.408 119.451 135.457 119.549 135.555C119.646 135.652 119.695 135.815 119.695 136.043V138.992C119.695 139.214 119.601 139.373 119.412 139.471C119.223 139.562 118.921 139.607 118.504 139.607C118.1 139.607 117.824 139.562 117.674 139.471C117.524 139.38 117.449 139.22 117.449 138.992V137.508H113.543V139.979H115.926C116.154 139.979 116.313 140.053 116.404 140.203C116.495 140.353 116.541 140.63 116.541 141.033C116.541 141.437 116.495 141.714 116.404 141.863C116.313 142.007 116.154 142.078 115.926 142.078H113.543V144.9H117.547V142.928C117.547 142.706 117.641 142.55 117.83 142.459C118.025 142.361 118.341 142.312 118.777 142.312C119.207 142.312 119.5 142.358 119.656 142.449C119.812 142.54 119.891 142.7 119.891 142.928V146.365C119.891 146.587 119.842 146.749 119.744 146.854C119.646 146.951 119.484 147 119.256 147H110.154C109.998 147 109.878 146.974 109.793 146.922C109.708 146.87 109.643 146.772 109.598 146.629C109.559 146.486 109.539 146.277 109.539 146.004C109.539 145.73 109.559 145.522 109.598 145.379C109.643 145.236 109.708 145.138 109.793 145.086C109.878 145.027 109.998 144.998 110.154 144.998H111.102V137.41H110.154C109.998 137.41 109.878 137.384 109.793 137.332C109.708 137.28 109.643 137.182 109.598 137.039C109.559 136.896 109.539 136.688 109.539 136.414C109.539 136.141 109.559 135.932 109.598 135.789C109.643 135.646 109.708 135.548 109.793 135.496C109.878 135.438 109.998 135.408 110.154 135.408H119.061ZM127.332 135.408C128.693 135.408 129.699 135.688 130.35 136.248C131.007 136.801 131.336 137.573 131.336 138.562C131.336 139.096 131.202 139.555 130.936 139.939C130.675 140.317 130.307 140.62 129.832 140.848C131.323 141.251 132.068 142.182 132.068 143.641C132.068 144.741 131.707 145.577 130.984 146.15C130.262 146.717 129.227 147 127.879 147H122.244C122.088 147 121.967 146.974 121.883 146.922C121.798 146.87 121.733 146.772 121.688 146.629C121.648 146.486 121.629 146.277 121.629 146.004C121.629 145.73 121.648 145.522 121.688 145.379C121.733 145.236 121.798 145.138 121.883 145.086C121.967 145.027 122.088 144.998 122.244 144.998H123.289V137.41H122.244C122.088 137.41 121.967 137.384 121.883 137.332C121.798 137.28 121.733 137.182 121.688 137.039C121.648 136.896 121.629 136.688 121.629 136.414C121.629 136.141 121.648 135.932 121.688 135.789C121.733 135.646 121.798 135.548 121.883 135.496C121.967 135.438 122.088 135.408 122.244 135.408H127.332ZM125.73 140.027H127.117C127.703 140.027 128.139 139.923 128.426 139.715C128.712 139.507 128.855 139.188 128.855 138.758C128.855 138.322 128.715 138.006 128.436 137.811C128.162 137.609 127.723 137.508 127.117 137.508H125.73V140.027ZM125.73 144.9H127.605C128.868 144.9 129.5 144.448 129.5 143.543C129.5 143.061 129.344 142.706 129.031 142.479C128.725 142.244 128.25 142.127 127.605 142.127H125.73V144.9ZM153.875 135.193C154.292 135.193 154.588 135.242 154.764 135.34C154.939 135.431 155.027 135.587 155.027 135.809V138.484C155.027 138.706 154.956 138.865 154.812 138.963C154.676 139.054 154.448 139.1 154.129 139.1C153.914 139.1 153.745 139.074 153.621 139.021C153.497 138.969 153.4 138.891 153.328 138.787C153.022 138.305 152.628 137.934 152.146 137.674C151.665 137.407 151.108 137.273 150.477 137.273C150.001 137.273 149.627 137.394 149.354 137.635C149.087 137.876 148.953 138.188 148.953 138.572C148.953 138.761 149.012 138.917 149.129 139.041C149.246 139.158 149.415 139.262 149.637 139.354C149.923 139.464 150.415 139.578 151.111 139.695C151.788 139.826 152.342 139.949 152.771 140.066C153.201 140.177 153.605 140.35 153.982 140.584C155.024 141.215 155.545 142.234 155.545 143.641C155.545 144.357 155.392 144.982 155.086 145.516C154.786 146.049 154.334 146.466 153.729 146.766C153.123 147.065 152.378 147.215 151.492 147.215C150.405 147.215 149.484 146.886 148.729 146.229V146.6C148.729 146.821 148.647 146.977 148.484 147.068C148.328 147.166 148.045 147.215 147.635 147.215C147.218 147.215 146.922 147.166 146.746 147.068C146.57 146.977 146.482 146.821 146.482 146.6V143.338C146.482 143.117 146.551 142.96 146.688 142.869C146.831 142.771 147.062 142.723 147.381 142.723C147.609 142.723 147.788 142.752 147.918 142.811C148.055 142.869 148.159 142.97 148.23 143.113C148.582 143.784 149.002 144.288 149.49 144.627C149.979 144.965 150.548 145.135 151.199 145.135C151.772 145.135 152.208 145.018 152.508 144.783C152.807 144.549 152.957 144.223 152.957 143.807C152.957 143.546 152.889 143.328 152.752 143.152C152.622 142.97 152.43 142.817 152.176 142.693C151.967 142.589 151.736 142.505 151.482 142.439C151.235 142.374 150.867 142.29 150.379 142.186C149.819 142.068 149.357 141.961 148.992 141.863C148.628 141.766 148.286 141.632 147.967 141.463C147.472 141.202 147.085 140.857 146.805 140.428C146.525 139.992 146.385 139.428 146.385 138.738C146.385 138.048 146.544 137.436 146.863 136.902C147.182 136.362 147.628 135.942 148.201 135.643C148.781 135.343 149.441 135.193 150.184 135.193C150.704 135.193 151.186 135.278 151.629 135.447C152.072 135.617 152.456 135.857 152.781 136.17V135.809C152.781 135.587 152.859 135.431 153.016 135.34C153.178 135.242 153.465 135.193 153.875 135.193ZM166.443 135.408C166.6 135.408 166.72 135.438 166.805 135.496C166.889 135.548 166.951 135.646 166.99 135.789C167.036 135.932 167.059 136.141 167.059 136.414C167.059 136.688 167.036 136.896 166.99 137.039C166.951 137.182 166.889 137.28 166.805 137.332C166.72 137.384 166.6 137.41 166.443 137.41H164.139V144.998H166.639C166.795 144.998 166.915 145.027 167 145.086C167.085 145.138 167.146 145.236 167.186 145.379C167.231 145.522 167.254 145.73 167.254 146.004C167.254 146.277 167.231 146.486 167.186 146.629C167.146 146.772 167.085 146.87 167 146.922C166.915 146.974 166.795 147 166.639 147H159.197C159.041 147 158.921 146.974 158.836 146.922C158.751 146.87 158.686 146.772 158.641 146.629C158.602 146.486 158.582 146.277 158.582 146.004C158.582 145.73 158.602 145.522 158.641 145.379C158.686 145.236 158.751 145.138 158.836 145.086C158.921 145.027 159.041 144.998 159.197 144.998H161.697V137.41H159.393C159.236 137.41 159.116 137.384 159.031 137.332C158.947 137.28 158.882 137.182 158.836 137.039C158.797 136.896 158.777 136.688 158.777 136.414C158.777 136.141 158.797 135.932 158.836 135.789C158.882 135.646 158.947 135.548 159.031 135.496C159.116 135.438 159.236 135.408 159.393 135.408H166.443ZM179.998 135.408C180.154 135.408 180.275 135.438 180.359 135.496C180.444 135.548 180.506 135.646 180.545 135.789C180.59 135.932 180.613 136.141 180.613 136.414C180.613 136.688 180.59 136.896 180.545 137.039C180.506 137.182 180.444 137.28 180.359 137.332C180.275 137.384 180.154 137.41 179.998 137.41H179.471L179.607 144.998H180.193C180.35 144.998 180.47 145.027 180.555 145.086C180.639 145.138 180.701 145.236 180.74 145.379C180.786 145.522 180.809 145.73 180.809 146.004C180.809 146.277 180.786 146.486 180.74 146.629C180.701 146.772 180.639 146.87 180.555 146.922C180.47 146.974 180.35 147 180.193 147H176.541C176.385 147 176.264 146.974 176.18 146.922C176.095 146.87 176.03 146.772 175.984 146.629C175.945 146.486 175.926 146.277 175.926 146.004C175.926 145.73 175.945 145.522 175.984 145.379C176.03 145.236 176.095 145.138 176.18 145.086C176.264 145.027 176.385 144.998 176.541 144.998H177.439L177.381 139.217L175.906 143.201C175.822 143.429 175.704 143.592 175.555 143.689C175.405 143.781 175.193 143.826 174.92 143.826C174.64 143.826 174.425 143.781 174.275 143.689C174.126 143.592 174.005 143.429 173.914 143.201L172.43 139.246L172.371 144.998H173.279C173.436 144.998 173.556 145.027 173.641 145.086C173.725 145.138 173.787 145.236 173.826 145.379C173.872 145.522 173.895 145.73 173.895 146.004C173.895 146.277 173.872 146.486 173.826 146.629C173.787 146.772 173.725 146.87 173.641 146.922C173.556 146.974 173.436 147 173.279 147H169.627C169.471 147 169.35 146.974 169.266 146.922C169.181 146.87 169.116 146.772 169.07 146.629C169.031 146.486 169.012 146.277 169.012 146.004C169.012 145.73 169.031 145.522 169.07 145.379C169.116 145.236 169.181 145.138 169.266 145.086C169.35 145.027 169.471 144.998 169.627 144.998H170.203L170.35 137.41H169.822C169.666 137.41 169.546 137.384 169.461 137.332C169.376 137.28 169.311 137.182 169.266 137.039C169.227 136.896 169.207 136.688 169.207 136.414C169.207 136.141 169.227 135.932 169.266 135.789C169.311 135.646 169.376 135.548 169.461 135.496C169.546 135.438 169.666 135.408 169.822 135.408H172.596C172.732 135.408 172.843 135.431 172.928 135.477C173.019 135.522 173.084 135.6 173.123 135.711L174.91 140.506L176.688 135.711C176.727 135.6 176.788 135.522 176.873 135.477C176.964 135.431 177.078 135.408 177.215 135.408H179.998ZM187.449 135.408C188.947 135.408 190.079 135.747 190.848 136.424C191.622 137.094 192.01 138.064 192.01 139.334C192.01 140.604 191.622 141.577 190.848 142.254C190.079 142.931 188.947 143.27 187.449 143.27H185.984V144.998H188.104C188.26 144.998 188.38 145.027 188.465 145.086C188.549 145.138 188.611 145.236 188.65 145.379C188.696 145.522 188.719 145.73 188.719 146.004C188.719 146.277 188.696 146.486 188.65 146.629C188.611 146.772 188.549 146.87 188.465 146.922C188.38 146.974 188.26 147 188.104 147H182.107C181.951 147 181.831 146.974 181.746 146.922C181.661 146.87 181.596 146.772 181.551 146.629C181.512 146.486 181.492 146.277 181.492 146.004C181.492 145.73 181.512 145.522 181.551 145.379C181.596 145.236 181.661 145.138 181.746 145.086C181.831 145.027 181.951 144.998 182.107 144.998H183.543V137.41H182.107C181.951 137.41 181.831 137.384 181.746 137.332C181.661 137.28 181.596 137.182 181.551 137.039C181.512 136.896 181.492 136.688 181.492 136.414C181.492 136.141 181.512 135.932 181.551 135.789C181.596 135.646 181.661 135.548 181.746 135.496C181.831 135.438 181.951 135.408 182.107 135.408H187.449ZM185.984 141.17H187.146C187.921 141.17 188.504 141.02 188.895 140.721C189.292 140.421 189.49 139.959 189.49 139.334C189.49 138.709 189.292 138.25 188.895 137.957C188.504 137.658 187.921 137.508 187.146 137.508H185.984V141.17ZM200.096 135.408C200.252 135.408 200.372 135.438 200.457 135.496C200.542 135.548 200.604 135.646 200.643 135.789C200.688 135.932 200.711 136.141 200.711 136.414C200.711 136.688 200.688 136.896 200.643 137.039C200.604 137.182 200.542 137.28 200.457 137.332C200.372 137.384 200.252 137.41 200.096 137.41H197.967V144.9H201.395V141.854C201.395 141.632 201.492 141.476 201.688 141.385C201.889 141.287 202.221 141.238 202.684 141.238C202.99 141.238 203.224 141.261 203.387 141.307C203.556 141.346 203.673 141.408 203.738 141.492C203.803 141.577 203.836 141.697 203.836 141.854V146.365C203.836 146.587 203.787 146.749 203.689 146.854C203.592 146.951 203.429 147 203.201 147H194.1C193.943 147 193.823 146.974 193.738 146.922C193.654 146.87 193.589 146.772 193.543 146.629C193.504 146.486 193.484 146.277 193.484 146.004C193.484 145.73 193.504 145.522 193.543 145.379C193.589 145.236 193.654 145.138 193.738 145.086C193.823 145.027 193.943 144.998 194.1 144.998H195.525V137.41H194.1C193.943 137.41 193.823 137.384 193.738 137.332C193.654 137.28 193.589 137.182 193.543 137.039C193.504 136.896 193.484 136.688 193.484 136.414C193.484 136.141 193.504 135.932 193.543 135.789C193.589 135.646 193.654 135.548 193.738 135.496C193.823 135.438 193.943 135.408 194.1 135.408H200.096ZM214.998 135.408C215.226 135.408 215.389 135.457 215.486 135.555C215.584 135.652 215.633 135.815 215.633 136.043V138.992C215.633 139.214 215.538 139.373 215.35 139.471C215.161 139.562 214.858 139.607 214.441 139.607C214.038 139.607 213.761 139.562 213.611 139.471C213.462 139.38 213.387 139.22 213.387 138.992V137.508H209.48V139.979H211.863C212.091 139.979 212.251 140.053 212.342 140.203C212.433 140.353 212.479 140.63 212.479 141.033C212.479 141.437 212.433 141.714 212.342 141.863C212.251 142.007 212.091 142.078 211.863 142.078H209.48V144.9H213.484V142.928C213.484 142.706 213.579 142.55 213.768 142.459C213.963 142.361 214.279 142.312 214.715 142.312C215.145 142.312 215.438 142.358 215.594 142.449C215.75 142.54 215.828 142.7 215.828 142.928V146.365C215.828 146.587 215.779 146.749 215.682 146.854C215.584 146.951 215.421 147 215.193 147H206.092C205.936 147 205.815 146.974 205.73 146.922C205.646 146.87 205.581 146.772 205.535 146.629C205.496 146.486 205.477 146.277 205.477 146.004C205.477 145.73 205.496 145.522 205.535 145.379C205.581 145.236 205.646 145.138 205.73 145.086C205.815 145.027 205.936 144.998 206.092 144.998H207.039V137.41H206.092C205.936 137.41 205.815 137.384 205.73 137.332C205.646 137.28 205.581 137.182 205.535 137.039C205.496 136.896 205.477 136.688 205.477 136.414C205.477 136.141 205.496 135.932 205.535 135.789C205.581 135.646 205.646 135.548 205.73 135.496C205.815 135.438 205.936 135.408 206.092 135.408H214.998ZM235.682 135.408C235.942 135.408 236.154 135.46 236.316 135.564C236.479 135.662 236.596 135.822 236.668 136.043L239.5 144.998H240.35C240.506 144.998 240.626 145.024 240.711 145.076C240.796 145.128 240.857 145.226 240.896 145.369C240.942 145.512 240.965 145.721 240.965 145.994C240.965 146.268 240.942 146.476 240.896 146.619C240.857 146.762 240.796 146.863 240.711 146.922C240.626 146.974 240.506 147 240.35 147H236.209C236.053 147 235.932 146.974 235.848 146.922C235.763 146.863 235.698 146.762 235.652 146.619C235.613 146.476 235.594 146.268 235.594 145.994C235.594 145.721 235.613 145.512 235.652 145.369C235.698 145.226 235.763 145.128 235.848 145.076C235.932 145.024 236.053 144.998 236.209 144.998H237.049L236.609 143.582H233.055L232.615 144.998H233.338C233.494 144.998 233.615 145.024 233.699 145.076C233.784 145.128 233.846 145.226 233.885 145.369C233.93 145.512 233.953 145.721 233.953 145.994C233.953 146.268 233.93 146.476 233.885 146.619C233.846 146.762 233.784 146.863 233.699 146.922C233.615 146.974 233.494 147 233.338 147H229.393C229.236 147 229.116 146.974 229.031 146.922C228.947 146.863 228.885 146.762 228.846 146.619C228.8 146.476 228.777 146.268 228.777 145.994C228.777 145.721 228.8 145.512 228.846 145.369C228.885 145.226 228.947 145.128 229.031 145.076C229.116 145.024 229.236 144.998 229.393 144.998H230.213L232.684 137.41H231.053C230.896 137.41 230.776 137.384 230.691 137.332C230.607 137.273 230.542 137.173 230.496 137.029C230.457 136.886 230.438 136.678 230.438 136.404C230.438 136.131 230.457 135.923 230.496 135.779C230.542 135.636 230.607 135.538 230.691 135.486C230.776 135.434 230.896 135.408 231.053 135.408H235.682ZM234.822 137.41L233.621 141.58H236.053L234.881 137.41H234.822ZM250.398 135.193C250.802 135.193 251.079 135.239 251.229 135.33C251.378 135.421 251.453 135.581 251.453 135.809V139.168C251.453 139.389 251.352 139.549 251.15 139.646C250.955 139.738 250.626 139.783 250.164 139.783C249.858 139.783 249.62 139.764 249.451 139.725C249.288 139.679 249.174 139.614 249.109 139.529C249.044 139.445 249.012 139.324 249.012 139.168C249.012 138.608 248.842 138.175 248.504 137.869C248.165 137.563 247.651 137.41 246.961 137.41C246.056 137.41 245.369 137.736 244.9 138.387C244.432 139.038 244.197 139.975 244.197 141.199C244.197 142.41 244.445 143.348 244.939 144.012C245.441 144.669 246.147 144.998 247.059 144.998C247.781 144.998 248.465 144.9 249.109 144.705V143.074H247.225C247.068 143.074 246.948 143.048 246.863 142.996C246.779 142.944 246.714 142.846 246.668 142.703C246.629 142.56 246.609 142.352 246.609 142.078C246.609 141.805 246.629 141.596 246.668 141.453C246.714 141.31 246.779 141.212 246.863 141.16C246.948 141.102 247.068 141.072 247.225 141.072H251.854C252.01 141.072 252.13 141.102 252.215 141.16C252.299 141.212 252.361 141.31 252.4 141.453C252.446 141.596 252.469 141.805 252.469 142.078C252.469 142.352 252.446 142.56 252.4 142.703C252.361 142.846 252.299 142.944 252.215 142.996C252.13 143.048 252.01 143.074 251.854 143.074H251.551V145.604C251.551 145.76 251.518 145.896 251.453 146.014C251.395 146.131 251.31 146.219 251.199 146.277C250.594 146.59 249.93 146.824 249.207 146.98C248.484 147.137 247.736 147.215 246.961 147.215C245.893 147.215 244.952 146.971 244.139 146.482C243.325 145.994 242.693 145.298 242.244 144.393C241.801 143.481 241.58 142.417 241.58 141.199C241.58 139.988 241.798 138.93 242.234 138.025C242.671 137.114 243.273 136.414 244.041 135.926C244.816 135.438 245.691 135.193 246.668 135.193C247.814 135.193 248.66 135.577 249.207 136.346V135.809C249.207 135.587 249.301 135.431 249.49 135.34C249.679 135.242 249.982 135.193 250.398 135.193ZM259.666 135.408C259.926 135.408 260.138 135.46 260.301 135.564C260.464 135.662 260.581 135.822 260.652 136.043L263.484 144.998H264.334C264.49 144.998 264.611 145.024 264.695 145.076C264.78 145.128 264.842 145.226 264.881 145.369C264.926 145.512 264.949 145.721 264.949 145.994C264.949 146.268 264.926 146.476 264.881 146.619C264.842 146.762 264.78 146.863 264.695 146.922C264.611 146.974 264.49 147 264.334 147H260.193C260.037 147 259.917 146.974 259.832 146.922C259.747 146.863 259.682 146.762 259.637 146.619C259.598 146.476 259.578 146.268 259.578 145.994C259.578 145.721 259.598 145.512 259.637 145.369C259.682 145.226 259.747 145.128 259.832 145.076C259.917 145.024 260.037 144.998 260.193 144.998H261.033L260.594 143.582H257.039L256.6 144.998H257.322C257.479 144.998 257.599 145.024 257.684 145.076C257.768 145.128 257.83 145.226 257.869 145.369C257.915 145.512 257.938 145.721 257.938 145.994C257.938 146.268 257.915 146.476 257.869 146.619C257.83 146.762 257.768 146.863 257.684 146.922C257.599 146.974 257.479 147 257.322 147H253.377C253.221 147 253.1 146.974 253.016 146.922C252.931 146.863 252.869 146.762 252.83 146.619C252.785 146.476 252.762 146.268 252.762 145.994C252.762 145.721 252.785 145.512 252.83 145.369C252.869 145.226 252.931 145.128 253.016 145.076C253.1 145.024 253.221 144.998 253.377 144.998H254.197L256.668 137.41H255.037C254.881 137.41 254.76 137.384 254.676 137.332C254.591 137.273 254.526 137.173 254.48 137.029C254.441 136.886 254.422 136.678 254.422 136.404C254.422 136.131 254.441 135.923 254.48 135.779C254.526 135.636 254.591 135.538 254.676 135.486C254.76 135.434 254.881 135.408 255.037 135.408H259.666ZM258.807 137.41L257.605 141.58H260.037L258.865 137.41H258.807ZM274.373 135.408C274.529 135.408 274.65 135.438 274.734 135.496C274.819 135.548 274.881 135.646 274.92 135.789C274.965 135.932 274.988 136.141 274.988 136.414C274.988 136.688 274.965 136.896 274.92 137.039C274.881 137.182 274.819 137.28 274.734 137.332C274.65 137.384 274.529 137.41 274.373 137.41H272.068V144.998H274.568C274.725 144.998 274.845 145.027 274.93 145.086C275.014 145.138 275.076 145.236 275.115 145.379C275.161 145.522 275.184 145.73 275.184 146.004C275.184 146.277 275.161 146.486 275.115 146.629C275.076 146.772 275.014 146.87 274.93 146.922C274.845 146.974 274.725 147 274.568 147H267.127C266.971 147 266.85 146.974 266.766 146.922C266.681 146.87 266.616 146.772 266.57 146.629C266.531 146.486 266.512 146.277 266.512 146.004C266.512 145.73 266.531 145.522 266.57 145.379C266.616 145.236 266.681 145.138 266.766 145.086C266.85 145.027 266.971 144.998 267.127 144.998H269.627V137.41H267.322C267.166 137.41 267.046 137.384 266.961 137.332C266.876 137.28 266.811 137.182 266.766 137.039C266.727 136.896 266.707 136.688 266.707 136.414C266.707 136.141 266.727 135.932 266.766 135.789C266.811 135.646 266.876 135.548 266.961 135.496C267.046 135.438 267.166 135.408 267.322 135.408H274.373ZM287.928 135.408C288.084 135.408 288.204 135.438 288.289 135.496C288.374 135.548 288.436 135.646 288.475 135.789C288.52 135.932 288.543 136.141 288.543 136.414C288.543 136.688 288.52 136.896 288.475 137.039C288.436 137.182 288.374 137.28 288.289 137.332C288.204 137.384 288.084 137.41 287.928 137.41H287.371V146.57C287.371 146.785 287.29 146.945 287.127 147.049C286.964 147.16 286.688 147.215 286.297 147.215C285.997 147.215 285.773 147.173 285.623 147.088C285.48 147.01 285.353 146.88 285.242 146.697L280.848 139.422H280.809V144.998H281.893C282.049 144.998 282.169 145.027 282.254 145.086C282.339 145.138 282.4 145.236 282.439 145.379C282.485 145.522 282.508 145.73 282.508 146.004C282.508 146.277 282.485 146.486 282.439 146.629C282.4 146.772 282.339 146.87 282.254 146.922C282.169 146.974 282.049 147 281.893 147H277.947C277.791 147 277.671 146.974 277.586 146.922C277.501 146.87 277.436 146.772 277.391 146.629C277.352 146.486 277.332 146.277 277.332 146.004C277.332 145.73 277.352 145.522 277.391 145.379C277.436 145.236 277.501 145.138 277.586 145.086C277.671 145.027 277.791 144.998 277.947 144.998H278.602V137.41H277.947C277.791 137.41 277.671 137.384 277.586 137.332C277.501 137.28 277.436 137.182 277.391 137.039C277.352 136.896 277.332 136.688 277.332 136.414C277.332 136.141 277.352 135.932 277.391 135.789C277.436 135.646 277.501 135.548 277.586 135.496C277.671 135.438 277.791 135.408 277.947 135.408H280.525C280.786 135.408 280.968 135.496 281.072 135.672L285.125 142.381H285.164V137.41H284.266C284.109 137.41 283.989 137.384 283.904 137.332C283.82 137.28 283.755 137.182 283.709 137.039C283.67 136.896 283.65 136.688 283.65 136.414C283.65 136.141 283.67 135.932 283.709 135.789C283.755 135.646 283.82 135.548 283.904 135.496C283.989 135.438 284.109 135.408 284.266 135.408H287.928Z" fill="#C35214"/>
<path d="M357.209 93.7468L370.428 94.6163L374.448 90L371.872 94.8631L375 95.6843L371.782 96.2332L373.751 101L370.186 96.2527L357 95.5245L357.209 93.7468Z" fill="#451A03"/>
<path d="M327.823 4.01471C317.643 1.33451 305.856 4.337 296.414 8.66728C287.544 12.7346 277.372 18.8367 275.235 27.5395C264.6 51.8957 309.121 76.0897 304.867 93.3477C300.997 109.046 288.803 111.274 284.305 112.949C276.469 115.869 259 115.533 259 115.533C259 115.533 281.78 124.374 303.237 121.382C313.25 119.986 330.43 115.735 347.083 105.365C348.519 104.472 351.966 102.424 353.299 101.095C354.91 99.4865 354.91 99.4865 356.141 97.2352C380.136 75.4396 361.555 13.5957 327.823 4.01471Z" fill="#FF6E00"/>
<path d="M301.304 47.0316C303.379 49.924 306.648 51.9616 310.395 52.6982C314.142 53.4349 318.061 52.8104 321.295 50.9612C324.53 49.1123 326.816 46.1898 327.651 42.8333C328.487 39.4771 327.806 35.9602 325.756 33.0533C323.707 30.1463 320.456 28.0861 316.715 27.3236C312.975 26.5611 309.05 27.1583 305.799 28.9849C302.549 30.8111 300.239 33.7177 299.374 37.0682C298.508 40.4187 299.16 43.9402 301.184 46.8613" fill="white"/>
<path d="M335.874 27.9341C336.661 28.9352 337.901 29.6405 339.322 29.8956C340.743 30.1506 342.23 29.9342 343.457 29.2943C344.684 28.6544 345.551 27.6425 345.868 26.4808C346.185 25.319 345.926 24.1017 345.149 23.0955C344.372 22.0893 343.138 21.3762 341.72 21.112C340.301 20.8481 338.812 21.0549 337.579 21.687C336.346 22.3194 335.47 23.3256 335.142 24.4852C334.814 25.6451 335.06 26.864 335.828 27.8751" fill="white"/>
<path d="M322.397 36.3113C322.755 36.6451 323.318 36.8803 323.965 36.9652C324.61 37.0501 325.286 36.9781 325.844 36.7648C326.402 36.5516 326.796 36.2142 326.94 35.827C327.084 35.4398 326.966 35.0339 326.613 34.6985C326.26 34.363 325.699 34.1255 325.054 34.0373C324.41 33.9494 323.733 34.0184 323.172 34.229C322.612 34.4399 322.214 34.7751 322.064 35.1617C321.915 35.5484 322.028 35.9545 322.377 36.2916" fill="#8A3324"/>
<path d="M344.159 25.5408C344.302 25.7634 344.527 25.9202 344.786 25.9768C345.044 26.0334 345.315 25.9854 345.538 25.8432C345.761 25.7009 345.918 25.4761 345.976 25.2178C346.034 24.9598 345.987 24.6893 345.845 24.4656C345.704 24.2419 345.48 24.0835 345.222 24.0249C344.964 23.9663 344.693 24.012 344.469 24.1526C344.245 24.2932 344.086 24.5166 344.026 24.7744C343.966 25.0321 344.011 25.3032 344.151 25.5277" fill="#8A3324"/>
<path d="M323.157 69.4302C315.236 73.1092 313.098 89.1245 303.762 98.4233C308.806 96.6082 311.504 94.6251 313.082 92.584C312.69 95.3624 309.693 98.4398 302 104C313.539 100.035 334.249 93.4618 335.961 81.1719C336.623 76.4215 328.681 66.8645 323.158 69.4298L323.157 69.4302Z" fill="#8A3324"/>
<path d="M365.329 52.6101C365.329 52.6101 359.366 47.229 352.564 51.9196C344.739 57.3159 340.511 65.6211 344.565 80.3767C347.604 91.4359 357.545 98 357.545 98C368.854 85.8317 367.944 64.4381 365.329 52.6088L365.329 52.6101Z" fill="#D16002"/>
<path d="M357 30L378 33.6326L358.651 43L357 30Z" fill="#FF9913"/>
<path d="M354 30L376 33.3532L355.729 42L354 30Z" fill="#FF9913"/>
<path d="M352.391 99.8061L370.186 103.145L374.941 98L371.714 103.558L375 104.793L371.489 105.177L373.157 111L369.772 105.068L352 101.899L352.391 99.8061Z" fill="#451A03"/>
<path d="M357.209 93.7468L370.428 94.6163L374.448 90L371.872 94.8631L375 95.6843L371.782 96.2332L373.751 101L370.186 96.2527L357 95.5245L357.209 93.7468Z" fill="#451A03"/>
<path d="M327.823 4.01471C317.643 1.33451 305.856 4.337 296.414 8.66728C287.544 12.7346 277.372 18.8367 275.235 27.5395C264.6 51.8957 309.121 76.0897 304.867 93.3477C300.997 109.046 288.803 111.274 284.305 112.949C276.469 115.869 259 115.533 259 115.533C259 115.533 281.78 124.374 303.237 121.382C313.25 119.986 330.43 115.735 347.083 105.365C348.519 104.472 351.966 102.424 353.299 101.095C354.91 99.4865 354.91 99.4865 356.141 97.2352C380.136 75.4396 361.555 13.5957 327.823 4.01471Z" fill="#FD673A"/>
<path d="M301.304 47.0316C303.379 49.924 306.648 51.9616 310.395 52.6982C314.142 53.4349 318.061 52.8104 321.295 50.9612C324.53 49.1123 326.816 46.1898 327.651 42.8333C328.487 39.4771 327.806 35.9602 325.756 33.0533C323.707 30.1463 320.456 28.0861 316.715 27.3236C312.975 26.5611 309.05 27.1583 305.799 28.9849C302.549 30.8111 300.239 33.7177 299.374 37.0682C298.508 40.4187 299.16 43.9402 301.184 46.8613" fill="white"/>
<path d="M335.874 27.9341C336.661 28.9352 337.901 29.6405 339.322 29.8956C340.743 30.1506 342.23 29.9342 343.457 29.2943C344.684 28.6544 345.551 27.6425 345.868 26.4808C346.185 25.319 345.926 24.1017 345.149 23.0955C344.372 22.0893 343.138 21.3762 341.72 21.112C340.301 20.8481 338.812 21.0549 337.579 21.687C336.346 22.3194 335.47 23.3256 335.142 24.4852C334.814 25.6451 335.06 26.864 335.828 27.8751" fill="white"/>
<path d="M322.397 36.3113C322.755 36.6451 323.318 36.8803 323.965 36.9652C324.61 37.0501 325.286 36.9781 325.844 36.7648C326.402 36.5516 326.796 36.2142 326.94 35.827C327.084 35.4398 326.966 35.0339 326.613 34.6985C326.26 34.363 325.699 34.1255 325.054 34.0373C324.41 33.9494 323.733 34.0184 323.172 34.229C322.612 34.4399 322.214 34.7751 322.064 35.1617C321.915 35.5484 322.028 35.9545 322.377 36.2916" fill="#451A03"/>
<path d="M344.159 25.5408C344.302 25.7634 344.527 25.9202 344.786 25.9768C345.044 26.0334 345.315 25.9854 345.538 25.8432C345.761 25.7009 345.918 25.4761 345.976 25.2178C346.034 24.9598 345.987 24.6893 345.845 24.4656C345.704 24.2419 345.48 24.0835 345.222 24.0249C344.964 23.9663 344.693 24.012 344.469 24.1526C344.245 24.2932 344.086 24.5166 344.026 24.7744C343.966 25.0321 344.011 25.3032 344.151 25.5277" fill="#451A03"/>
<path d="M323.157 69.4302C315.236 73.1092 313.098 89.1245 303.762 98.4233C308.806 96.6082 311.504 94.6251 313.082 92.584C312.69 95.3624 309.693 98.4398 302 104C313.539 100.035 334.249 93.4618 335.961 81.1719C336.623 76.4215 328.681 66.8645 323.158 69.4298L323.157 69.4302Z" fill="#C35214"/>
<path d="M365.329 52.6101C365.329 52.6101 359.366 47.229 352.564 51.9196C344.739 57.3159 340.511 65.6211 344.565 80.3767C347.604 91.4359 357.545 98 357.545 98C368.854 85.8317 367.944 64.4381 365.329 52.6088L365.329 52.6101Z" fill="#ED9121"/>
<path d="M357 30L378 33.6326L358.651 43L357 30Z" fill="#C35214"/>
<path d="M354 30L376 33.3532L355.729 42L354 30Z" fill="#C35214"/>
<path d="M352.391 99.8061L370.186 103.145L374.941 98L371.714 103.558L375 104.793L371.489 105.177L373.157 111L369.772 105.068L352 101.899L352.391 99.8061Z" fill="#451A03"/>
<path d="M357.209 93.7468L370.428 94.6163L374.448 90L371.872 94.8631L375 95.6843L371.782 96.2332L373.751 101L370.186 96.2527L357 95.5245L357.209 93.7468Z" fill="#451A03"/>
<path d="M327.823 4.01471C317.643 1.33451 305.856 4.337 296.414 8.66728C287.544 12.7346 277.372 18.8367 275.235 27.5395C264.6 51.8957 309.121 76.0897 304.867 93.3477C300.997 109.046 288.803 111.274 284.305 112.949C276.469 115.869 259 115.533 259 115.533C259 115.533 281.78 124.374 303.237 121.382C313.25 119.986 330.43 115.735 347.083 105.365C348.519 104.472 351.966 102.424 353.299 101.095C354.91 99.4865 354.91 99.4865 356.141 97.2352C380.136 75.4396 361.555 13.5957 327.823 4.01471Z" fill="#FF6E00"/>
<path d="M301.304 47.0316C303.379 49.924 306.648 51.9616 310.395 52.6982C314.142 53.4349 318.061 52.8104 321.295 50.9612C324.53 49.1123 326.816 46.1898 327.651 42.8333C328.487 39.4771 327.806 35.9602 325.756 33.0533C323.707 30.1463 320.456 28.0861 316.715 27.3236C312.975 26.5611 309.05 27.1583 305.799 28.9849C302.549 30.8111 300.239 33.7177 299.374 37.0682C298.508 40.4187 299.16 43.9402 301.184 46.8613" fill="white"/>
<path d="M335.874 27.9341C336.661 28.9352 337.901 29.6405 339.322 29.8956C340.743 30.1506 342.23 29.9342 343.457 29.2943C344.684 28.6544 345.551 27.6425 345.868 26.4808C346.185 25.319 345.926 24.1017 345.149 23.0955C344.372 22.0893 343.138 21.3762 341.72 21.112C340.301 20.8481 338.812 21.0549 337.579 21.687C336.346 22.3194 335.47 23.3256 335.142 24.4852C334.814 25.6451 335.06 26.864 335.828 27.8751" fill="white"/>
<path d="M322.397 36.3113C322.755 36.6451 323.318 36.8803 323.965 36.9652C324.61 37.0501 325.286 36.9781 325.844 36.7648C326.402 36.5516 326.796 36.2142 326.94 35.827C327.084 35.4398 326.966 35.0339 326.613 34.6985C326.26 34.363 325.699 34.1255 325.054 34.0373C324.41 33.9494 323.733 34.0184 323.172 34.229C322.612 34.4399 322.214 34.7751 322.064 35.1617C321.915 35.5484 322.028 35.9545 322.377 36.2916" fill="#8A3324"/>
<path d="M344.159 25.5408C344.302 25.7634 344.527 25.9202 344.786 25.9768C345.044 26.0334 345.315 25.9854 345.538 25.8432C345.761 25.7009 345.918 25.4761 345.976 25.2178C346.034 24.9598 345.987 24.6893 345.845 24.4656C345.704 24.2419 345.48 24.0835 345.222 24.0249C344.964 23.9663 344.693 24.012 344.469 24.1526C344.245 24.2932 344.086 24.5166 344.026 24.7744C343.966 25.0321 344.011 25.3032 344.151 25.5277" fill="#8A3324"/>
<path d="M323.157 69.4302C315.236 73.1092 313.098 89.1245 303.762 98.4233C308.806 96.6082 311.504 94.6251 313.082 92.584C312.69 95.3624 309.693 98.4398 302 104C313.539 100.035 334.249 93.4618 335.961 81.1719C336.623 76.4215 328.681 66.8645 323.158 69.4298L323.157 69.4302Z" fill="#8A3324"/>
<path d="M365.329 52.6101C365.329 52.6101 359.366 47.229 352.564 51.9196C344.739 57.3159 340.511 65.6211 344.565 80.3767C347.604 91.4359 357.545 98 357.545 98C368.854 85.8317 367.944 64.4381 365.329 52.6088L365.329 52.6101Z" fill="#D16002"/>
<path d="M357 30L378 33.6326L358.651 43L357 30Z" fill="#FF9913"/>
<path d="M354 30L376 33.3532L355.729 42L354 30Z" fill="#FF9913"/>
<path d="M352.391 99.8061L370.186 103.145L374.941 98L371.714 103.558L375 104.793L371.489 105.177L373.157 111L369.772 105.068L352 101.899L352.391 99.8061Z" fill="#451A03"/>
<path d="M357.209 93.7468L370.428 94.6163L374.448 90L371.872 94.8631L375 95.6843L371.782 96.2332L373.751 101L370.186 96.2527L357 95.5245L357.209 93.7468Z" fill="#451A03"/>
<path d="M327.823 4.01471C317.643 1.33451 305.856 4.337 296.414 8.66728C287.544 12.7346 277.372 18.8367 275.235 27.5395C264.6 51.8957 309.121 76.0897 304.867 93.3477C300.997 109.046 288.803 111.274 284.305 112.949C276.469 115.869 259 115.533 259 115.533C259 115.533 281.78 124.374 303.237 121.382C313.25 119.986 330.43 115.735 347.083 105.365C348.519 104.472 351.966 102.424 353.299 101.095C354.91 99.4865 354.91 99.4865 356.141 97.2352C380.136 75.4396 361.555 13.5957 327.823 4.01471Z" fill="#FD673A"/>
<path d="M301.304 47.0316C303.379 49.924 306.648 51.9616 310.395 52.6982C314.142 53.4349 318.061 52.8104 321.295 50.9612C324.53 49.1123 326.816 46.1898 327.651 42.8333C328.487 39.4771 327.806 35.9602 325.756 33.0533C323.707 30.1463 320.456 28.0861 316.715 27.3236C312.975 26.5611 309.05 27.1583 305.799 28.9849C302.549 30.8111 300.239 33.7177 299.374 37.0682C298.508 40.4187 299.16 43.9402 301.184 46.8613" fill="white"/>
<path d="M335.874 27.9341C336.661 28.9352 337.901 29.6405 339.322 29.8956C340.743 30.1506 342.23 29.9342 343.457 29.2943C344.684 28.6544 345.551 27.6425 345.868 26.4808C346.185 25.319 345.926 24.1017 345.149 23.0955C344.372 22.0893 343.138 21.3762 341.72 21.112C340.301 20.8481 338.812 21.0549 337.579 21.687C336.346 22.3194 335.47 23.3256 335.142 24.4852C334.814 25.6451 335.06 26.864 335.828 27.8751" fill="white"/>
<path d="M322.397 36.3113C322.755 36.6451 323.318 36.8803 323.965 36.9652C324.61 37.0501 325.286 36.9781 325.844 36.7648C326.402 36.5516 326.796 36.2142 326.94 35.827C327.084 35.4398 326.966 35.0339 326.613 34.6985C326.26 34.363 325.699 34.1255 325.054 34.0373C324.41 33.9494 323.733 34.0184 323.172 34.229C322.612 34.4399 322.214 34.7751 322.064 35.1617C321.915 35.5484 322.028 35.9545 322.377 36.2916" fill="#451A03"/>
<path d="M344.159 25.5408C344.302 25.7634 344.527 25.9202 344.786 25.9768C345.044 26.0334 345.315 25.9854 345.538 25.8432C345.761 25.7009 345.918 25.4761 345.976 25.2178C346.034 24.9598 345.987 24.6893 345.845 24.4656C345.704 24.2419 345.48 24.0835 345.222 24.0249C344.964 23.9663 344.693 24.012 344.469 24.1526C344.245 24.2932 344.086 24.5166 344.026 24.7744C343.966 25.0321 344.011 25.3032 344.151 25.5277" fill="#451A03"/>
<path d="M323.157 69.4302C315.236 73.1092 313.098 89.1245 303.762 98.4233C308.806 96.6082 311.504 94.6251 313.082 92.584C312.69 95.3624 309.693 98.4398 302 104C313.539 100.035 334.249 93.4618 335.961 81.1719C336.623 76.4215 328.681 66.8645 323.158 69.4298L323.157 69.4302Z" fill="#C35214"/>
<path d="M365.329 52.6101C365.329 52.6101 359.366 47.229 352.564 51.9196C344.739 57.3159 340.511 65.6211 344.565 80.3767C347.604 91.4359 357.545 98 357.545 98C368.854 85.8317 367.944 64.4381 365.329 52.6088L365.329 52.6101Z" fill="#ED9121"/>
<path d="M357 30L378 33.6326L358.651 43L357 30Z" fill="#C35214"/>
<path d="M354 30L376 33.3532L355.729 42L354 30Z" fill="#C35214"/>
<path d="M352.391 99.8061L370.186 103.145L374.941 98L371.714 103.558L375 104.793L371.489 105.177L373.157 111L369.772 105.068L352 101.899L352.391 99.8061Z" fill="#451A03"/>
</svg>
